# xmcd
#
# Track frame offsets:
#	150
#	16152
#	29784
#	47515
#	65672
#	85899
#	100729
#	121419
#	142056
#	160337
#	187178
#	203490
#
# Disc length: 2939 seconds
#
# Revision: 2
# Processed by: cddbd v1.5.2PL0 Copyright (c) Steve Scherf et al.
# Submitted via: EZCDAudioConverter 7.0.6.1
#
DISCID=a70b790c
DTITLE=Sugarland - Love On The Inside
DYEAR=2008
DGENRE=Country
TTITLE0=All I Want To Do
TTITLE1=It Happens
TTITLE2=We Run
TTITLE3=Joey
TTITLE4=Love
TTITLE5=Genevieve
TTITLE6=Already Gone
TTITLE7=Keep You
TTITLE8=Take Me As I Am
TTITLE9=What I'd Give
TTITLE10=Steve Earle
TTITLE11=Very Last Country Song
EXTD=
EXTT0=
EXTT1=
EXTT2=
EXTT3=
EXTT4=
EXTT5=
EXTT6=
EXTT7=
EXTT8=
EXTT9=
EXTT10=
EXTT11=
PLAYORDER=
